<svg xmlns="http://www.w3.org/2000/svg" xmlns:xlink="http://www.w3.org/1999/xlink" width="500" zoomAndPan="magnify" viewBox="0 0 375 374.999991" height="500" preserveAspectRatio="xMidYMid meet" version="1.0"><defs><g/></defs><rect x="-37.5" width="450" fill="#ffffff" y="-37.499999" height="449.999989" fill-opacity="1"/><rect x="-37.5" width="450" fill="#ffffff" y="-37.499999" height="449.999989" fill-opacity="1"/><rect x="-37.5" width="450" fill="#ffffff" y="-37.499999" height="449.999989" fill-opacity="1"/><g fill="#000000" fill-opacity="1"><g transform="translate(85.595718, 182.292874)"><g><path d="M 24.246094 -28.914062 L 11.472656 -28.914062 C 9.929688 -28.914062 8.597656 -28.703125 7.507812 -28.316406 C 6.386719 -27.894531 5.472656 -27.226562 4.808594 -26.351562 C 4.105469 -25.472656 3.578125 -24.316406 3.261719 -22.914062 C 2.949219 -21.542969 2.808594 -19.859375 2.808594 -17.929688 L 2.808594 -10.984375 C 2.808594 -9.019531 2.949219 -7.332031 3.261719 -5.929688 C 3.578125 -4.5625 4.105469 -3.402344 4.808594 -2.492188 C 5.507812 -1.613281 6.421875 -0.949219 7.507812 -0.5625 C 8.597656 -0.175781 9.929688 0.0351562 11.472656 0.0351562 L 24.246094 0.0351562 C 24.527344 0.0351562 25.226562 -0.105469 25.226562 -1.191406 L 25.226562 -3.964844 C 25.226562 -5.050781 24.527344 -5.191406 24.246094 -5.191406 L 11.648438 -5.191406 C 10.914062 -5.191406 10.28125 -5.261719 9.824219 -5.4375 C 9.367188 -5.578125 9.054688 -5.824219 8.773438 -6.210938 C 8.492188 -6.5625 8.316406 -7.085938 8.175781 -7.753906 C 8.070312 -8.457031 8 -9.332031 8 -10.386719 L 8 -18.5625 C 8 -19.613281 8.070312 -20.492188 8.175781 -21.15625 C 8.316406 -21.824219 8.492188 -22.316406 8.773438 -22.703125 C 9.054688 -23.089844 9.367188 -23.332031 9.824219 -23.472656 C 10.28125 -23.648438 10.914062 -23.71875 11.648438 -23.71875 L 24.246094 -23.71875 C 24.527344 -23.71875 25.226562 -23.859375 25.226562 -24.984375 L 25.226562 -27.683594 C 25.226562 -28.773438 24.527344 -28.914062 24.246094 -28.914062 Z M 24.246094 -28.914062 "/></g></g></g><g fill="#000000" fill-opacity="1"><g transform="translate(115.378258, 182.292874)"><g><path d="M 25.472656 -28.914062 L 22.246094 -28.914062 C 21.964844 -28.914062 21.296875 -28.773438 21.296875 -27.683594 L 21.296875 -17.191406 L 8 -17.191406 L 8 -27.683594 C 8 -28.773438 7.332031 -28.914062 7.019531 -28.914062 L 3.824219 -28.914062 C 3.507812 -28.914062 2.808594 -28.773438 2.808594 -27.683594 L 2.808594 -1.191406 C 2.808594 -0.105469 3.507812 0.0351562 3.824219 0.0351562 L 7.019531 0.0351562 C 7.332031 0.0351562 8 -0.105469 8 -1.191406 L 8 -12 L 21.296875 -12 L 21.296875 -1.191406 C 21.296875 -0.105469 21.964844 0.0351562 22.246094 0.0351562 L 25.472656 0.0351562 C 25.789062 0.0351562 26.492188 -0.105469 26.492188 -1.191406 L 26.492188 -27.683594 C 26.492188 -28.773438 25.789062 -28.914062 25.472656 -28.914062 Z M 25.472656 -28.914062 "/></g></g></g><g fill="#000000" fill-opacity="1"><g transform="translate(146.423665, 182.292874)"><g><path d="M 23.894531 -6.28125 L 11.542969 -6.28125 C 10.808594 -6.28125 10.210938 -6.386719 9.71875 -6.527344 C 9.261719 -6.703125 8.949219 -6.949219 8.667969 -7.296875 C 8.386719 -7.683594 8.175781 -8.210938 8.070312 -8.878906 C 8.035156 -9.054688 8.035156 -9.296875 8 -9.472656 C 8 -9.472656 8.035156 -12 8.070312 -12 L 23.753906 -12 C 24.035156 -12 24.738281 -12.140625 24.738281 -13.226562 L 24.738281 -16 C 24.738281 -17.089844 24.035156 -17.191406 23.753906 -17.191406 L 5.648438 -17.15625 C 4.632812 -17.089844 3.753906 -16.5625 3.261719 -15.683594 C 3.085938 -15.402344 2.949219 -15.121094 2.878906 -14.808594 L 2.808594 -10.386719 L 2.808594 -10.210938 C 2.84375 -8.5625 3.019531 -7.15625 3.261719 -6 C 3.578125 -4.597656 4.105469 -3.4375 4.773438 -2.5625 C 5.472656 -1.648438 6.386719 -1.015625 7.507812 -0.632812 C 8.597656 -0.210938 9.894531 -0.0351562 11.4375 -0.0351562 L 23.894531 -0.0351562 C 24.210938 -0.0351562 24.914062 -0.140625 24.914062 -1.226562 L 24.914062 -5.085938 C 24.914062 -6.175781 24.210938 -6.28125 23.894531 -6.28125 Z M 23.929688 -28.984375 L 3.753906 -28.984375 C 3.472656 -28.984375 2.808594 -28.84375 2.808594 -27.71875 L 2.808594 -24.984375 C 2.808594 -23.894531 3.472656 -23.789062 3.753906 -23.789062 L 23.929688 -23.753906 C 24.210938 -23.753906 24.914062 -23.894531 24.914062 -24.984375 L 24.914062 -27.753906 C 24.914062 -28.84375 24.210938 -28.984375 23.929688 -28.984375 Z M 23.929688 -28.984375 "/></g></g></g><g fill="#000000" fill-opacity="1"><g transform="translate(175.890497, 182.292874)"><g><path d="M 23.894531 -6.28125 L 11.542969 -6.28125 C 10.808594 -6.28125 10.210938 -6.386719 9.71875 -6.527344 C 9.261719 -6.703125 8.949219 -6.949219 8.667969 -7.296875 C 8.386719 -7.683594 8.175781 -8.210938 8.070312 -8.878906 C 8.035156 -9.054688 8.035156 -9.296875 8 -9.472656 C 8 -9.472656 8.035156 -12 8.070312 -12 L 23.753906 -12 C 24.035156 -12 24.738281 -12.140625 24.738281 -13.226562 L 24.738281 -16 C 24.738281 -17.089844 24.035156 -17.191406 23.753906 -17.191406 L 5.648438 -17.15625 C 4.632812 -17.089844 3.753906 -16.5625 3.261719 -15.683594 C 3.085938 -15.402344 2.949219 -15.121094 2.878906 -14.808594 L 2.808594 -10.386719 L 2.808594 -10.210938 C 2.84375 -8.5625 3.019531 -7.15625 3.261719 -6 C 3.578125 -4.597656 4.105469 -3.4375 4.773438 -2.5625 C 5.472656 -1.648438 6.386719 -1.015625 7.507812 -0.632812 C 8.597656 -0.210938 9.894531 -0.0351562 11.4375 -0.0351562 L 23.894531 -0.0351562 C 24.210938 -0.0351562 24.914062 -0.140625 24.914062 -1.226562 L 24.914062 -5.085938 C 24.914062 -6.175781 24.210938 -6.28125 23.894531 -6.28125 Z M 23.929688 -28.984375 L 3.753906 -28.984375 C 3.472656 -28.984375 2.808594 -28.84375 2.808594 -27.71875 L 2.808594 -24.984375 C 2.808594 -23.894531 3.472656 -23.789062 3.753906 -23.789062 L 23.929688 -23.753906 C 24.210938 -23.753906 24.914062 -23.894531 24.914062 -24.984375 L 24.914062 -27.753906 C 24.914062 -28.84375 24.210938 -28.984375 23.929688 -28.984375 Z M 23.929688 -28.984375 "/></g></g></g><g fill="#000000" fill-opacity="1"><g transform="translate(205.357328, 182.292874)"><g><path d="M 32.105469 -28.914062 L 28.949219 -28.914062 C 28.457031 -28.914062 28.070312 -28.878906 27.71875 -28.773438 C 27.367188 -28.667969 27.054688 -28.492188 26.773438 -28.246094 C 26.527344 -27.964844 26.28125 -27.648438 26.070312 -27.226562 C 25.859375 -26.808594 25.683594 -26.28125 25.472656 -25.613281 L 19.261719 -10.105469 C 19.226562 -9.964844 19.191406 -9.964844 19.15625 -9.964844 L 18.808594 -9.964844 C 18.808594 -9.964844 18.738281 -9.964844 18.703125 -10.105469 L 12.527344 -25.613281 C 12.316406 -26.28125 12.105469 -26.808594 11.929688 -27.226562 C 11.71875 -27.648438 11.472656 -27.964844 11.226562 -28.246094 C 10.949219 -28.492188 10.597656 -28.667969 10.246094 -28.773438 C 9.894531 -28.878906 9.472656 -28.914062 9.019531 -28.914062 L 5.789062 -28.914062 C 4.597656 -28.914062 3.789062 -28.527344 3.367188 -27.789062 C 2.984375 -27.125 2.808594 -26 2.808594 -24.386719 L 2.808594 -1.191406 C 2.808594 -0.105469 3.507812 0.0351562 3.824219 0.0351562 L 6.84375 0.0351562 C 7.15625 0.0351562 7.824219 -0.105469 7.824219 -1.191406 L 7.824219 -22.28125 C 7.824219 -22.316406 7.824219 -22.351562 7.824219 -22.351562 L 8 -22.351562 C 8.035156 -22.351562 8.070312 -22.351562 8.105469 -22.246094 L 14.105469 -7.402344 C 14.351562 -6.667969 14.597656 -6.035156 14.84375 -5.507812 C 15.121094 -4.984375 15.402344 -4.5625 15.683594 -4.210938 C 16.035156 -3.859375 16.386719 -3.578125 16.808594 -3.4375 C 17.226562 -3.296875 17.683594 -3.226562 18.210938 -3.226562 L 19.648438 -3.226562 C 20.175781 -3.226562 20.667969 -3.296875 21.054688 -3.4375 C 21.472656 -3.578125 21.859375 -3.859375 22.175781 -4.210938 C 22.457031 -4.5625 22.773438 -4.984375 23.019531 -5.507812 C 23.261719 -6.035156 23.507812 -6.667969 23.753906 -7.402344 L 29.789062 -22.28125 C 29.789062 -22.351562 29.824219 -22.351562 29.859375 -22.351562 L 30.035156 -22.351562 C 30.035156 -22.351562 30.035156 -22.316406 30.035156 -22.28125 L 30.035156 -1.191406 C 30.035156 -0.105469 30.738281 0.0351562 31.019531 0.0351562 L 34.035156 0.0351562 C 34.351562 0.0351562 35.054688 -0.105469 35.054688 -1.191406 L 35.054688 -24.386719 C 35.054688 -26 34.878906 -27.125 34.492188 -27.789062 C 34.070312 -28.527344 33.261719 -28.914062 32.105469 -28.914062 Z M 32.105469 -28.914062 "/></g></g></g><g fill="#000000" fill-opacity="1"><g transform="translate(244.962131, 182.292874)"><g><path d="M 26.773438 -22.386719 C 26.421875 -23.859375 25.824219 -25.089844 25.089844 -26.070312 C 24.316406 -27.019531 23.296875 -27.753906 22.105469 -28.210938 C 20.914062 -28.667969 19.507812 -28.914062 17.859375 -28.914062 L 5.613281 -28.914062 L 5.613281 -28.878906 C 4.597656 -28.808594 3.71875 -28.246094 3.191406 -27.402344 C 3.050781 -27.125 2.914062 -26.808594 2.84375 -26.527344 L 2.808594 -2.5625 C 2.878906 -2.175781 3.019531 -1.789062 3.191406 -1.472656 C 3.753906 -0.527344 4.773438 0.0351562 5.859375 0.0351562 L 17.859375 0.0351562 C 19.507812 0.0351562 20.949219 -0.210938 22.105469 -0.667969 C 23.296875 -1.121094 24.316406 -1.859375 25.089844 -2.84375 C 25.824219 -3.789062 26.421875 -5.019531 26.773438 -6.492188 C 27.125 -7.964844 27.296875 -9.71875 27.296875 -11.683594 L 27.296875 -17.191406 C 27.296875 -19.15625 27.125 -20.914062 26.773438 -22.386719 Z M 7.964844 -5.367188 L 7.964844 -23.507812 C 7.964844 -23.648438 8 -23.71875 8.035156 -23.71875 L 17.753906 -23.71875 C 18.5625 -23.71875 19.261719 -23.613281 19.824219 -23.402344 C 20.386719 -23.191406 20.808594 -22.914062 21.125 -22.457031 C 21.472656 -22 21.71875 -21.402344 21.859375 -20.667969 C 22 -19.859375 22.105469 -18.878906 22.105469 -17.71875 L 22.105469 -11.15625 C 22.105469 -10 22 -9.019531 21.859375 -8.246094 C 21.71875 -7.472656 21.472656 -6.878906 21.125 -6.421875 C 20.808594 -6 20.386719 -5.683594 19.824219 -5.472656 C 19.261719 -5.261719 18.5625 -5.191406 17.753906 -5.191406 L 8 -5.191406 C 8 -5.191406 7.964844 -5.226562 7.964844 -5.367188 Z M 7.964844 -5.367188 "/></g></g></g><g fill="#000000" fill-opacity="1"><g transform="translate(276.814356, 182.292874)"><g><path d="M 7.019531 -28.914062 L 3.789062 -28.914062 C 3.507812 -28.914062 2.808594 -28.773438 2.808594 -27.683594 L 2.808594 -1.191406 C 2.808594 -0.105469 3.507812 0.0351562 3.789062 0.0351562 L 7.019531 0.0351562 C 7.296875 0.0351562 8 -0.105469 8 -1.191406 L 8 -27.683594 C 8 -28.773438 7.296875 -28.914062 7.019531 -28.914062 Z M 7.019531 -28.914062 "/></g></g></g></svg>